<svg width="946" height="130" xmlns="http://www.w3.org/2000/svg" xmlns:xlink="http://www.w3.org/1999/xlink" overflow="hidden"><defs><clipPath id="clip0"><rect x="9" y="282" width="946" height="130"/></clipPath><clipPath id="clip1"><rect x="10" y="297" width="183" height="86"/></clipPath><clipPath id="clip2"><rect x="10" y="297" width="183" height="86"/></clipPath><clipPath id="clip3"><rect x="10" y="297" width="183" height="86"/></clipPath><clipPath id="clip4"><rect x="10" y="297" width="183" height="86"/></clipPath><clipPath id="clip5"><rect x="10" y="297" width="183" height="86"/></clipPath><clipPath id="clip6"><rect x="10" y="297" width="183" height="86"/></clipPath><clipPath id="clip7"><rect x="539" y="283" width="92" height="100"/></clipPath><clipPath id="clip8"><rect x="539" y="283" width="92" height="100"/></clipPath><clipPath id="clip9"><rect x="539" y="283" width="92" height="100"/></clipPath></defs><g clip-path="url(#clip0)" transform="translate(-9 -282)"><g clip-path="url(#clip1)"><g clip-path="url(#clip2)"><g clip-path="url(#clip3)"><path d="M301.582 87.9924C301.582 70.8232 315.565 56.9044 332.814 56.9044 350.064 56.9044 364.048 70.8232 364.048 87.9924 364.048 105.162 350.064 119.08 332.814 119.08 315.565 119.08 301.582 105.162 301.582 87.9924Z" stroke="#FFFFFF" stroke-width="23.8243" stroke-miterlimit="8" fill="none" fill-rule="evenodd" transform="matrix(1.00296 0 0 1 -184.073 252.008)"/><path d="M262.648 130.992 306.272 44.9923 332.959 44.9923 289.336 130.992Z" fill="#FFFFFF" fill-rule="evenodd" transform="matrix(1.00296 0 0 1 -184.073 252.008)"/><path d="M193.5 130.992 236.944 44.9923 263.52 44.9923 220.077 130.992Z" fill="#FFFFFF" fill-rule="evenodd" transform="matrix(1.00296 0 0 1 -184.073 252.008)"/><path d="M228.075 130.992 271.698 44.9923 298.385 44.9923 254.762 130.992Z" fill="#FFFFFF" fill-rule="evenodd" transform="matrix(1.00296 0 0 1 -184.073 252.008)"/></g></g></g><g clip-path="url(#clip4)"><g clip-path="url(#clip5)"><g clip-path="url(#clip6)"><path d="M301.582 87.9924C301.582 70.8232 315.565 56.9044 332.814 56.9044 350.064 56.9044 364.048 70.8232 364.048 87.9924 364.048 105.162 350.064 119.08 332.814 119.08 315.565 119.08 301.582 105.162 301.582 87.9924Z" stroke="#FFFFFF" stroke-width="23.8243" stroke-miterlimit="8" fill="none" fill-rule="evenodd" transform="matrix(1.00296 0 0 1 -184.073 252.008)"/><path d="M262.648 130.992 306.272 44.9923 332.959 44.9923 289.336 130.992Z" fill="#FFFFFF" fill-rule="evenodd" transform="matrix(1.00296 0 0 1 -184.073 252.008)"/><path d="M193.5 130.992 236.944 44.9923 263.52 44.9923 220.077 130.992Z" fill="#FFFFFF" fill-rule="evenodd" transform="matrix(1.00296 0 0 1 -184.073 252.008)"/><path d="M228.075 130.992 271.698 44.9923 298.385 44.9923 254.762 130.992Z" fill="#FFFFFF" fill-rule="evenodd" transform="matrix(1.00296 0 0 1 -184.073 252.008)"/></g></g></g><text fill="#FFFFFF" font-family="Source Han Sans CN ExtraLight,Source Han Sans CN ExtraLight_MSFontService,sans-serif" font-size="37" transform="translate(211.869 334)">麦普健康<tspan font-size="37" x="0" y="45">回归健康本源</tspan></text><g clip-path="url(#clip7)"><g clip-path="url(#clip8)"><g clip-path="url(#clip9)"><path d="M221.363 197.093 221.363 187.771 253.694 187.865C254.889 187.865 255.994 186.691 255.994 185.495 255.994 184.3 254.889 183.283 253.694 183.281L221.363 183.234 221.363 173.742 260.341 173.72C261.679 173.719 262.888 172.488 262.888 171.292 262.888 170.096 261.679 169.017 260.341 169.019L221.363 169.089 221.363 164.152C221.363 162.956 220.358 161.653 219.02 161.653 217.681 161.653 216.48 162.956 216.48 164.152L216.48 169.089 177.785 169.02C176.447 169.017 175.238 170.096 175.238 171.292 175.238 172.488 176.447 173.72 177.785 173.72L216.48 173.743 216.48 183.234 185.426 183.281C184.23 183.283 183.125 184.455 183.125 185.651 183.125 186.846 184.23 187.865 185.426 187.865L216.48 187.771 216.48 197.093 175.951 197.134C174.405 197.136 173.317 198.22 173.317 199.415 173.317 200.61 174.405 202.146 175.951 202.146L203.279 201.984 203.293 210.018C202.845 217.157 179.363 210.84 179.137 224.087 179.137 224.087 179.18 221.155 179.198 241.843 179.195 246.853 179.178 245.12 179.199 252.797 179.201 254.014 180.441 254.882 181.778 254.936 181.816 254.938 181.419 254.938 181.457 254.938 182.744 254.938 184.089 253.957 184.149 252.797 184.142 244.967 184.137 246.902 184.155 241.843 184.159 220.596 185.021 222.56 186.844 220.807 191.907 217.387 205.51 220.278 208.216 212.838L208.216 201.938 219.061 201.989 262.596 202.145C264.14 202.145 265.23 200.61 265.23 199.415 265.23 198.218 264.14 197.134 262.596 197.134" fill="#FFFFFF" transform="matrix(1 0 0 1.07075 365.683 109.911)"/><path d="M-1.12602-4.03675C5.74603 1.24926 3.76292 12.9215-6.60018 12.7865L-34.7192 12.7724C-36.0276 12.7717-37.352 11.689-37.352 10.4934-37.352 9.29773-36.0276 7.95721-34.7192 7.95721L-6.41263 7.9579C-2.1593 7.55518-0.878944 2.26692-5.53949-1.22806-9.7775-4.08569-10.3795-3.98034-17.3972-6.69078-24.6062-4.13992-26.0095-3.28881-33.5417 1.69845-36.2821 3.51293-36.1326 3.35306-36.1819 3.3988-37.0957 4.25381-38.6944 3.95034-39.6304 3.11472-40.565 2.27979-40.5961 0.761071-39.6822-0.0946264-39.5185-0.247549-37.5001-1.535-37.5001-1.535-31.6188-5.47605-26.5532-8.2945-26.5532-8.2945-37.184-11.1644-41.8367-16.1677-41.9212-31.8861-41.8367-33.0291-40.7981-34.0093-39.5623-34.0093-38.2948-34.0264-37.0681-32.9623-37.0949-31.8493-38.6348-10.2151-17.3877-11.5805-17.3877-11.5805-17.3877-11.5805 3.41994-10.6677 2.9599-31.7019 3.03328-32.8526 3.98218-34.0279 5.22764-34.0279 6.80742-34.1153 7.97812-33.0221 7.95783-31.7019 7.9084-16.1589 0.986965-11.5679-8.6536-8.34947-8.6536-8.34947-6.50469-7.44975-4.85433-6.47569" fill="#FFFFFF" transform="matrix(1 0 0 -1.07075 619.365 346.376)"/></g></g></g><text fill="#FFFFFF" font-family="Source Han Sans CN ExtraLight,Source Han Sans CN ExtraLight_MSFontService,sans-serif" font-size="37" transform="translate(650.545 334)">大麦<tspan font-size="37" x="74.6666" y="0">一品</tspan><tspan font-size="37" x="0" y="45">品质生活新主张</tspan></text><path d="M490 294 490 380.286" stroke="#7F7F7F" stroke-width="2" stroke-miterlimit="8" fill="none" fill-rule="evenodd"/></g></svg>