<svg width="741" height="302" xmlns="http://www.w3.org/2000/svg" xmlns:xlink="http://www.w3.org/1999/xlink" overflow="hidden"><defs><clipPath id="clip0"><rect x="188" y="94" width="741" height="302"/></clipPath><clipPath id="clip1"><rect x="249" y="114" width="301" height="142"/></clipPath><clipPath id="clip2"><rect x="249" y="114" width="301" height="142"/></clipPath><clipPath id="clip3"><rect x="249" y="114" width="301" height="142"/></clipPath><clipPath id="clip4"><rect x="714" y="95" width="178" height="191"/></clipPath><clipPath id="clip5"><rect x="714" y="95" width="178" height="191"/></clipPath><clipPath id="clip6"><rect x="714" y="95" width="178" height="191"/></clipPath></defs><g clip-path="url(#clip0)" transform="translate(-188 -94)"><g clip-path="url(#clip1)"><g clip-path="url(#clip2)"><g clip-path="url(#clip3)"><path d="M497.514 145.159C497.514 116.836 520.582 93.8742 549.037 93.8742 577.495 93.8742 600.563 116.836 600.563 145.159 600.563 173.483 577.495 196.444 549.037 196.444 520.582 196.444 497.514 173.483 497.514 145.159Z" stroke="#FFFFFF" stroke-width="39.3025" stroke-miterlimit="8" fill="none" fill-rule="evenodd" transform="matrix(1 0 0 1.0009 -70.2134 39.7105)"/><path d="M433.286 216.095 505.251 74.2229 549.277 74.2229 477.312 216.095Z" fill="#FFFFFF" fill-rule="evenodd" transform="matrix(1 0 0 1.0009 -70.2134 39.7105)"/><path d="M319.213 216.095 390.882 74.2229 434.725 74.2229 363.057 216.095Z" fill="#FFFFFF" fill-rule="evenodd" transform="matrix(1 0 0 1.0009 -70.2134 39.7105)"/><path d="M376.25 216.095 448.215 74.2229 492.241 74.2229 420.276 216.095Z" fill="#FFFFFF" fill-rule="evenodd" transform="matrix(1 0 0 1.0009 -70.2134 39.7105)"/></g></g></g><text fill="#FFFFFF" font-family="Source Han Sans CN Light,Source Han Sans CN Light_MSFontService,sans-serif" font-weight="300" font-size="64" transform="translate(226.835 340)">MICROKEEP</text><g clip-path="url(#clip4)"><g clip-path="url(#clip5)"><g clip-path="url(#clip6)"><path d="M428.289 381.332 428.289 363.295 490.843 363.477C493.156 363.477 495.293 361.206 495.293 358.893 495.293 356.58 493.156 354.612 490.843 354.609L428.289 354.517 428.289 336.154 503.703 336.111C506.293 336.109 508.632 333.726 508.632 331.413 508.632 329.1 506.293 327.011 503.703 327.016L428.289 327.15 428.289 317.598C428.289 315.285 426.345 312.763 423.755 312.763 421.166 312.763 418.842 315.285 418.842 317.598L418.842 327.151 343.976 327.016C341.387 327.012 339.046 329.1 339.046 331.413 339.046 333.726 341.387 336.111 343.976 336.111L418.842 336.154 418.842 354.518 358.759 354.609C356.445 354.612 354.308 356.881 354.308 359.194 354.308 361.507 356.445 363.478 358.759 363.478L418.842 363.296 418.842 381.332 340.428 381.412C337.435 381.416 335.331 383.512 335.331 385.824 335.331 388.137 337.435 391.109 340.428 391.109L393.3 390.794 393.327 406.339C392.461 420.152 347.029 407.93 346.592 433.559 346.592 433.559 346.674 427.886 346.708 467.914 346.704 477.607 346.671 474.254 346.711 489.108 346.715 491.462 349.114 493.14 351.7 493.247 351.774 493.25 351.007 493.25 351.08 493.25 353.57 493.25 356.172 491.352 356.289 489.108 356.275 473.958 356.265 477.702 356.3 467.914 356.307 426.804 357.976 430.605 361.502 427.214 371.298 420.596 397.617 426.189 402.853 411.795L402.853 390.707 423.835 390.806 508.066 391.106C511.054 391.106 513.161 388.137 513.161 385.824 513.161 383.508 511.054 381.412 508.066 381.412" fill="#FFFFFF" transform="matrix(1 0 0 1.05703 378.669 -235.601)"/><path d="M-2.17861-7.81024C11.1173 2.41705 7.28044 25.0003-12.7699 24.7391L-67.174 24.7119C-69.7056 24.7106-72.2679 22.6156-72.2679 20.3024-72.2679 17.9891-69.7056 15.3955-67.174 15.3955L-12.407 15.3968C-4.17778 14.6176-1.70056 4.386-10.7177-2.37603-18.9173-7.90492-20.082-7.70108-33.6598-12.9452-47.6076-8.00984-50.3227-6.36313-64.8959 3.28614-70.1979 6.79675-69.9087 6.48744-70.0041 6.57594-71.7722 8.23019-74.8653 7.64304-76.6762 6.0263-78.4845 4.4109-78.5445 1.47251-76.7764-0.183081-76.4598-0.478953-72.5546-2.96989-72.5546-2.96989-61.1755-10.595-51.3746-16.0481-51.3746-16.0481-71.943-21.6007-80.945-31.2811-81.1084-61.6927-80.945-63.9041-78.9354-65.8005-76.5444-65.8005-74.0921-65.8338-71.7187-63.7749-71.7706-61.6214-74.7499-19.764-33.6415-22.4057-33.6415-22.4057-33.6415-22.4057 6.61684-20.6398 5.72676-61.3364 5.86874-63.5626 7.70465-65.8366 10.1144-65.8366 13.1709-66.0056 15.4359-63.8906 15.3967-61.3364 15.301-31.2639 1.90956-22.3813-16.7428-16.1544-16.7428-16.1544-12.5852-14.4136-9.39207-12.529" fill="#FFFFFF" transform="matrix(1 0 0 -1.05703 869.49 216.047)"/></g></g></g><text fill="#FFFFFF" font-family="YouYuan,YouYuan_MSFontService,sans-serif" font-weight="400" font-size="48" transform="translate(706.916 337)">大麦一品</text><path d="M640 114 640 331.521" stroke="#FFFFFF" stroke-width="2" stroke-miterlimit="8" fill="none" fill-rule="evenodd"/></g></svg>