<svg width="1180" height="212" xmlns="http://www.w3.org/2000/svg" xmlns:xlink="http://www.w3.org/1999/xlink" overflow="hidden"><defs><clipPath id="clip0"><rect x="23" y="366" width="1180" height="212"/></clipPath><clipPath id="clip1"><rect x="23" y="392" width="302" height="142"/></clipPath><clipPath id="clip2"><rect x="23" y="392" width="302" height="142"/></clipPath><clipPath id="clip3"><rect x="23" y="392" width="302" height="142"/></clipPath></defs><g clip-path="url(#clip0)" transform="translate(-23 -366)"><text fill="#FFFFFF" font-family="Source Han Sans CN ExtraLight,Source Han Sans CN ExtraLight_MSFontService,sans-serif" font-size="64" transform="translate(355.845 446)">MICROKEEP<tspan font-size="64" x="0" y="77">BACK TO NATURAL HEALTH</tspan></text><g clip-path="url(#clip1)"><g clip-path="url(#clip2)"><g clip-path="url(#clip3)"><path d="M497.961 145.29C497.961 116.941 521.049 93.9585 549.53 93.9585 578.013 93.9585 601.102 116.941 601.102 145.29 601.102 173.639 578.013 196.62 549.53 196.62 521.049 196.62 497.961 173.639 497.961 145.29Z" stroke="#FFFFFF" stroke-width="39.3378" stroke-miterlimit="8" fill="none" fill-rule="evenodd" transform="matrix(1.00242 0 0 1 -297.274 317.71)"/><path d="M433.675 216.289 505.705 74.2896 549.77 74.2896 477.74 216.289Z" fill="#FFFFFF" fill-rule="evenodd" transform="matrix(1.00242 0 0 1 -297.274 317.71)"/><path d="M319.499 216.289 391.233 74.2896 435.115 74.2896 363.383 216.289Z" fill="#FFFFFF" fill-rule="evenodd" transform="matrix(1.00242 0 0 1 -297.274 317.71)"/><path d="M376.588 216.289 448.618 74.2896 492.683 74.2896 420.653 216.289Z" fill="#FFFFFF" fill-rule="evenodd" transform="matrix(1.00242 0 0 1 -297.274 317.71)"/></g></g></g></g></svg>