<?xml version="1.0" standalone="no"?><!DOCTYPE svg PUBLIC "-//W3C//DTD SVG 1.1//EN" "http://www.w3.org/Graphics/SVG/1.1/DTD/svg11.dtd"><svg t="1640139131669" class="icon" viewBox="0 0 1024 1024" version="1.1" xmlns="http://www.w3.org/2000/svg" p-id="2019" xmlns:xlink="http://www.w3.org/1999/xlink" width="20" height="20"><defs><style type="text/css"></style></defs><path d="M130 129m44 0l678 0q44 0 44 44l0 0q0 44-44 44l-678 0q-44 0-44-44l0 0q0-44 44-44Z" fill="#ffffff" p-id="2020"></path><path d="M130 468m44 0l678 0q44 0 44 44l0 0q0 44-44 44l-678 0q-44 0-44-44l0 0q0-44 44-44Z" fill="#ffffff" p-id="2021"></path><path d="M130 807m44 0l678 0q44 0 44 44l0 0q0 44-44 44l-678 0q-44 0-44-44l0 0q0-44 44-44Z" fill="#ffffff" p-id="2022"></path></svg>